<svg width="39" height="43" viewBox="0 0 39 43" fill="none" xmlns="http://www.w3.org/2000/svg">
<path d="M19.5 25.8C18.8861 25.8 18.3712 25.5936 17.9552 25.1808C17.5392 24.768 17.3319 24.2577 17.3333 23.65C17.3333 23.0408 17.5413 22.5298 17.9573 22.117C18.3733 21.7042 18.8876 21.4986 19.5 21.5C20.1139 21.5 20.6288 21.7064 21.0448 22.1192C21.4608 22.532 21.6681 23.0423 21.6667 23.65C21.6667 24.2592 21.4587 24.7701 21.0427 25.1829C20.6267 25.5957 20.1124 25.8014 19.5 25.8ZM10.8333 25.8C10.2194 25.8 9.7045 25.5936 9.2885 25.1808C8.8725 24.768 8.66522 24.2577 8.66667 23.65C8.66667 23.0408 8.87467 22.5298 9.29067 22.117C9.70667 21.7042 10.2209 21.4986 10.8333 21.5C11.4472 21.5 11.9622 21.7064 12.3782 22.1192C12.7942 22.532 13.0014 23.0423 13 23.65C13 24.2592 12.792 24.7701 12.376 25.1829C11.96 25.5957 11.4458 25.8014 10.8333 25.8ZM28.1667 25.8C27.5528 25.8 27.0378 25.5936 26.6218 25.1808C26.2058 24.768 25.9986 24.2577 26 23.65C26 23.0408 26.208 22.5298 26.624 22.117C27.04 21.7042 27.5542 21.4986 28.1667 21.5C28.7806 21.5 29.2955 21.7064 29.7115 22.1192C30.1275 22.532 30.3348 23.0423 30.3333 23.65C30.3333 24.2592 30.1253 24.7701 29.7093 25.1829C29.2933 25.5957 28.7791 25.8014 28.1667 25.8ZM19.5 34.4C18.8861 34.4 18.3712 34.1936 17.9552 33.7808C17.5392 33.368 17.3319 32.8577 17.3333 32.25C17.3333 31.6408 17.5413 31.1298 17.9573 30.717C18.3733 30.3042 18.8876 30.0986 19.5 30.1C20.1139 30.1 20.6288 30.3064 21.0448 30.7192C21.4608 31.132 21.6681 31.6423 21.6667 32.25C21.6667 32.8592 21.4587 33.3701 21.0427 33.7829C20.6267 34.1957 20.1124 34.4014 19.5 34.4ZM10.8333 34.4C10.2194 34.4 9.7045 34.1936 9.2885 33.7808C8.8725 33.368 8.66522 32.8577 8.66667 32.25C8.66667 31.6408 8.87467 31.1298 9.29067 30.717C9.70667 30.3042 10.2209 30.0986 10.8333 30.1C11.4472 30.1 11.9622 30.3064 12.3782 30.7192C12.7942 31.132 13.0014 31.6423 13 32.25C13 32.8592 12.792 33.3701 12.376 33.7829C11.96 34.1957 11.4458 34.4014 10.8333 34.4ZM28.1667 34.4C27.5528 34.4 27.0378 34.1936 26.6218 33.7808C26.2058 33.368 25.9986 32.8577 26 32.25C26 31.6408 26.208 31.1298 26.624 30.717C27.04 30.3042 27.5542 30.0986 28.1667 30.1C28.7806 30.1 29.2955 30.3064 29.7115 30.7192C30.1275 31.132 30.3348 31.6423 30.3333 32.25C30.3333 32.8592 30.1253 33.3701 29.7093 33.7829C29.2933 34.1957 28.7791 34.4014 28.1667 34.4ZM4.33334 43C3.14167 43 2.12117 42.5786 1.27184 41.7358C0.422503 40.893 -0.00144077 39.8811 3.67855e-06 38.7V8.6C3.67855e-06 7.4175 0.42467 6.40485 1.274 5.56205C2.12334 4.71925 3.14311 4.29857 4.33334 4.3H6.5V0H10.8333V4.3H28.1667V0H32.5V4.3H34.6667C35.8583 4.3 36.8788 4.7214 37.7282 5.5642C38.5775 6.407 39.0014 7.41893 39 8.6V38.7C39 39.8825 38.5753 40.8951 37.726 41.7379C36.8767 42.5807 35.8569 43.0014 34.6667 43H4.33334ZM4.33334 38.7H34.6667V17.2H4.33334V38.7Z" fill="#868686" fill-opacity="0.76"/>
</svg>
